<svg width="70" height="70" viewBox="0 0 70 70" fill="none" xmlns="http://www.w3.org/2000/svg">
<path d="M6.12366 21H9.10136V39.3105H6.12366V21ZM14.7686 29.669C15.1528 29.717 15.561 29.837 15.9813 30.0412C16.4135 30.2453 16.8098 30.5214 17.182 30.8816C17.5542 31.2419 17.8664 31.6861 18.1185 32.2144C18.3707 32.7307 18.4907 33.331 18.4907 34.0154C18.4907 34.8439 18.3707 35.5523 18.1185 36.1527C17.8664 36.753 17.5542 37.2453 17.182 37.6295C16.8098 38.0137 16.4015 38.3259 15.9693 38.554C15.525 38.7822 15.1048 38.9503 14.6966 39.0583C14.2883 39.1784 13.9281 39.2504 13.6159 39.2744C13.3038 39.2985 13.0996 39.3105 12.9916 39.3105H10.1099V37.1252H12.8235C13.7 37.1252 14.3844 36.8491 14.8887 36.2847C15.3809 35.7204 15.6331 34.964 15.6331 34.0274C15.6331 33.1269 15.3809 32.3825 14.8647 31.7702C14.3484 31.1578 13.5919 30.8456 12.6074 30.8456H10.1219V28.8285H11.3106C11.6708 28.8285 12.043 28.8165 12.4273 28.8045C12.8115 28.7925 13.1597 28.6964 13.4959 28.5283C13.8321 28.3602 14.0962 28.0841 14.3003 27.6878C14.5044 27.2916 14.6125 26.7153 14.6125 25.9708C14.6125 25.6707 14.5765 25.3585 14.4924 25.0343C14.4084 24.7101 14.2403 24.422 14.0002 24.1578C13.748 23.8937 13.3998 23.6775 12.9315 23.5094C12.4633 23.3413 11.8509 23.2573 11.0945 23.2573H10.1219V21H11.3947C12.1751 21 12.9315 21.0961 13.652 21.2762C14.3844 21.4563 15.0327 21.7444 15.5851 22.1407C16.1494 22.5369 16.5936 23.0532 16.9298 23.6895C17.266 24.3259 17.4221 25.0823 17.4221 25.9588C17.4221 26.4751 17.3381 26.9434 17.17 27.3636C17.0019 27.7839 16.7978 28.1561 16.5456 28.4683C16.2935 28.7804 16.0173 29.0446 15.6931 29.2487C15.3809 29.4648 15.0688 29.5969 14.7686 29.669Z" fill="black"/>
<path d="M25.1545 21L27.9161 28.1321L26.5713 31.3859L21.7566 21H25.1545ZM31.9864 21H35.3844L29.9453 31.8542V39.3105H26.9195V33.199L31.9864 21Z" fill="black"/>
<path d="M39.2269 35.9609C39.455 36.093 39.7552 36.2251 40.1034 36.3451C40.4636 36.4652 40.8238 36.5853 41.208 36.6933C41.5923 36.8014 41.9645 36.8854 42.3487 36.9575C42.7329 37.0295 43.0811 37.0535 43.4173 37.0535H43.4893V39.4189H43.4413C43.0451 39.4189 42.6369 39.3949 42.2166 39.3589C41.7964 39.3228 41.3641 39.2508 40.9319 39.1427C40.4996 39.0467 40.0914 38.9026 39.7072 38.7345C39.323 38.5664 38.9868 38.3503 38.6986 38.0981L39.2269 35.9609ZM38.8187 25.8151C38.8187 25.0827 38.9387 24.4343 39.1909 23.858C39.443 23.2817 39.7792 22.7654 40.1995 22.3331C40.6197 21.8889 41.124 21.5407 41.6883 21.2885C42.2646 21.0364 42.865 20.8563 43.4893 20.7842V23.3777C42.961 23.5578 42.5168 23.882 42.1686 24.3383C41.8204 24.7945 41.6523 25.2508 41.6523 25.7191C41.6523 26.3674 41.8204 26.8837 42.1686 27.28C42.5168 27.6762 42.961 28.0244 43.4893 28.3246V31.1582C42.937 30.894 42.3967 30.6059 41.8444 30.3057C41.2921 29.9935 40.7998 29.6333 40.3556 29.2251C39.9113 28.8168 39.5391 28.3366 39.2509 27.7842C38.9748 27.2319 38.8187 26.5836 38.8187 25.8151ZM47.3916 23.834C47.3075 23.798 47.2115 23.7379 47.0914 23.6659C46.9713 23.5818 46.8153 23.5098 46.5991 23.4258C46.383 23.3537 46.1068 23.2937 45.7827 23.2336C45.4465 23.1856 45.0262 23.1736 44.5099 23.2096V20.7002C45.2424 20.7122 45.9748 20.7963 46.7312 20.9403C47.4876 21.0844 48.088 21.3005 48.5562 21.6007C48.4602 21.8168 48.3401 22.057 48.208 22.3091C48.076 22.5613 47.9559 22.8014 47.8358 23.0295C47.7158 23.2577 47.6197 23.4378 47.5357 23.5938C47.4636 23.7259 47.4156 23.81 47.3916 23.834ZM44.5099 28.8288C45.0622 29.081 45.6146 29.3451 46.1909 29.6213C46.7672 29.8974 47.2835 30.2456 47.7398 30.6539C48.208 31.0621 48.5803 31.5544 48.8804 32.1307C49.1806 32.7071 49.3247 33.4275 49.3247 34.292C49.3247 34.8923 49.2166 35.4686 48.9885 36.033C48.7604 36.5973 48.4482 37.1016 48.04 37.5578C47.6317 38.0141 47.1274 38.3983 46.5391 38.7105C45.9388 39.0227 45.2664 39.2268 44.4979 39.3348V36.9455C45.8547 36.6093 46.5391 35.7088 46.5391 34.2319C46.5391 33.6556 46.347 33.1753 45.9628 32.7911C45.5785 32.4069 45.0983 32.0587 44.4979 31.7225V28.8288H44.5099Z" fill="black"/>
<path d="M55.4962 21V37.0532H63.925V39.3105H52.4705V21H55.4962Z" fill="black"/>
<path d="M25.4545 15.4893H6.12341V17.9266H25.4545V15.4893Z" fill="#C8C8C8"/>
<path d="M63.9248 15.4893H44.5938V17.9266H63.9248V15.4893Z" fill="#404040"/>
<path d="M44.6057 15.4893H25.4668V17.9266H44.6057V15.4893Z" fill="#408CD9"/>
<path d="M25.4547 42.3604H6.12366V44.7978H25.4547V42.3604Z" fill="#C8C8C8"/>
<path d="M63.9248 42.3604H44.5938V44.7978H63.9248V42.3604Z" fill="#404040"/>
<path d="M44.6057 42.3604H25.4668V44.7978H44.6057V42.3604Z" fill="#408CD9"/>
<path d="M17.9028 54.2956V50.0332H18.7673V53.5632H20.9286V54.2956H17.9028Z" fill="black"/>
<path d="M26.6799 49.9961H25.8154V54.2946H26.6799V49.9961Z" fill="black"/>
<path d="M33.0073 54.2946L31.4705 49.9961H32.407L33.4996 53.1779L34.5442 49.9961H35.4687L33.9319 54.2946H33.0073Z" fill="black"/>
<path d="M40.3196 54.2946V49.9961H43.5014V50.7165H41.1841V51.6771H43.3453V52.3975H41.1841V53.5621H43.5854V54.2946H40.3196Z" fill="black"/>
<path d="M52.1582 52.1455C52.1582 53.4663 51.0896 54.5469 49.7568 54.5469C48.4361 54.5469 47.3555 53.4783 47.3555 52.1455C47.3555 50.8128 48.4241 49.7441 49.7568 49.7441C51.0896 49.7441 52.1582 50.8248 52.1582 52.1455Z" stroke="#00E574" stroke-width="0.313359" stroke-miterlimit="10"/>
<path d="M51.0778 52.1457C51.0778 52.8661 50.4895 53.4544 49.7691 53.4544C49.0487 53.4544 48.4603 52.8661 48.4603 52.1457C48.4603 51.4253 49.0487 50.8369 49.7691 50.8369C50.4895 50.8369 51.0778 51.4253 51.0778 52.1457Z" fill="#00E574"/>
</svg>
