<svg width="24" height="24" viewBox="0 0 24 24" fill="none" xmlns="http://www.w3.org/2000/svg">
<path opacity="0.2" d="M5.24994 9.75016C5.24992 8.85978 5.42605 7.97819 5.7682 7.15618C6.11035 6.33416 6.61174 5.58795 7.24351 4.96054C7.87528 4.33313 8.62494 3.83691 9.44931 3.50046C10.2737 3.16401 11.1565 2.99398 12.0468 3.00016C15.7781 3.02829 18.7499 6.11266 18.7499 9.83454V10.5002C18.7499 13.8564 19.4531 15.8064 20.0718 16.8752C20.1406 16.9885 20.1778 17.1182 20.1794 17.2508C20.181 17.3833 20.147 17.5139 20.0809 17.6288C20.0148 17.7438 19.9191 17.8389 19.8037 17.9042C19.6883 17.9695 19.5575 18.0026 19.4249 18.0002H4.57494C4.44238 18.0026 4.31158 17.9695 4.19621 17.9042C4.08083 17.8389 3.9851 17.7438 3.91901 17.6288C3.85292 17.5139 3.81889 17.3833 3.82049 17.2508C3.82208 17.1182 3.85923 16.9885 3.92807 16.8752C4.54682 15.8064 5.24994 13.8564 5.24994 10.5002V9.75016Z" fill="#7E8299"/>
<path d="M9 21H15" stroke="#7E8299" stroke-width="2" stroke-linecap="round" stroke-linejoin="round"/>
<path d="M5.26879 9.7501C5.26754 8.86096 5.44222 7.98035 5.78275 7.15901C6.12329 6.33766 6.62296 5.5918 7.25299 4.96438C7.88302 4.33697 8.63095 3.84041 9.45371 3.50329C10.2765 3.16617 11.1578 2.99516 12.0469 3.0001C15.7594 3.02823 18.7313 6.1126 18.7313 9.83448V10.5001C18.7313 13.8564 19.4344 15.8064 20.0532 16.8751C20.1189 16.9889 20.1535 17.118 20.1537 17.2494C20.1538 17.3809 20.1193 17.51 20.0538 17.624C19.9883 17.7379 19.894 17.8326 19.7804 17.8986C19.6667 17.9647 19.5377 17.9996 19.4063 18.0001H4.59379C4.46237 17.9996 4.33337 17.9647 4.21972 17.8986C4.10607 17.8326 4.01177 17.7379 3.94626 17.624C3.88074 17.51 3.84632 17.3809 3.84644 17.2494C3.84655 17.118 3.8812 16.9889 3.94692 16.8751C4.56567 15.8064 5.26879 13.8564 5.26879 10.5001V9.7501Z" stroke="#7E8299" stroke-width="2" stroke-linecap="round" stroke-linejoin="round"/>
</svg>
